<svg xmlns="http://www.w3.org/2000/svg" viewBox="0 0 64 64" role="img" aria-labelledby="title">
  <title>AirAdmin8 Robotics</title>
  <defs>
    <linearGradient id="g" x1="8" y1="4" x2="56" y2="60" gradientUnits="userSpaceOnUse">
      <stop stop-color="#00b2bc"/>
      <stop offset="0.55" stop-color="#009bd2"/>
      <stop offset="1" stop-color="#0b3143"/>
    </linearGradient>
  </defs>
  <rect width="64" height="64" rx="16" fill="url(#g)"/>
  <path d="M16.8 45 27.2 18h7.7L45.4 45h-7.1l-2-5.9H25.6L23.7 45h-6.9Zm10.7-11.9h6.9L31 23.2l-3.5 9.9Z" fill="#fff"/>
  <path d="M48.4 31.8c0-3.8 2.8-6.4 7-6.4 4.1 0 6.9 2.4 6.9 5.9 0 2.2-1.1 3.9-3.1 4.9 2.5 1 3.8 2.9 3.8 5.4 0 4.1-3.1 6.8-7.8 6.8s-7.8-2.7-7.8-6.8c0-2.5 1.3-4.4 3.8-5.4-1.8-1-2.8-2.5-2.8-4.4Zm5.1 9.4c0 1.5.8 2.4 2 2.4 1.3 0 2.1-.9 2.1-2.4 0-1.4-.8-2.3-2.1-2.3-1.2 0-2 .9-2 2.3Zm.4-9.2c0 1.2.6 2 1.6 2s1.7-.8 1.7-2c0-1.1-.7-1.9-1.7-1.9s-1.6.8-1.6 1.9Z" fill="#fff" transform="translate(-4 -4) scale(.78)"/>
</svg>