<svg xmlns="http://www.w3.org/2000/svg" viewBox="0 0 640 420" role="img" aria-labelledby="title desc"><title id="title">人型ロボット</title><desc id="desc">研究・操作・データ収集向けの人型ロボットを表す線画</desc><defs><linearGradient id="g" x1="0" y1="0" x2="1" y2="1"><stop stop-color="#dff7ff"/><stop offset="1" stop-color="#eef8fc"/></linearGradient></defs><rect width="640" height="420" rx="36" fill="url(#g)"/><circle cx="320" cy="100" r="48" fill="#fff" stroke="#0b3143" stroke-width="10"/><path d="M265 158h110c28 0 52 24 52 52v78H213v-78c0-28 24-52 52-52Z" fill="#fff" stroke="#0b3143" stroke-width="10"/><path d="M213 205 142 260m285-55 71 55M270 288l-28 88m128-88 28 88" fill="none" stroke="#0b3143" stroke-width="14" stroke-linecap="round"/><circle cx="292" cy="99" r="8" fill="#009ad2"/><circle cx="348" cy="99" r="8" fill="#009ad2"/><path d="M286 128c20 14 48 14 68 0" fill="none" stroke="#009ad2" stroke-width="8" stroke-linecap="round"/><rect x="276" y="194" width="88" height="56" rx="16" fill="#e5f8ff" stroke="#009ad2" stroke-width="8"/></svg>